<svg width="52" height="52" viewBox="0 0 52 52" fill="none" xmlns="http://www.w3.org/2000/svg">
<g clip-path="url(#clip0_5497_31612)">
<path d="M15.167 28.167C18.742 28.167 21.667 25.242 21.667 21.667C21.667 18.092 18.742 15.167 15.167 15.167C11.592 15.167 8.66699 18.092 8.66699 21.667C8.66699 25.242 11.592 28.167 15.167 28.167ZM41.167 15.167H28.167C25.7837 15.167 23.8337 17.117 23.8337 19.5003V30.3337H6.50033V17.3337C6.50033 16.142 5.52533 15.167 4.33366 15.167C3.14199 15.167 2.16699 16.142 2.16699 17.3337V32.5003C2.16699 34.8837 4.11699 36.8337 6.50033 36.8337H45.5003C47.8837 36.8337 49.8337 34.8837 49.8337 32.5003V23.8337C49.8337 19.0453 45.9553 15.167 41.167 15.167Z" fill="#00CCFA"/>
</g>
<defs>
<clipPath id="clip0_5497_31612">
<rect width="52" height="52" fill="white"/>
</clipPath>
</defs>
</svg>
