<svg width="24" height="24" viewBox="0 0 24 24" fill="none" xmlns="http://www.w3.org/2000/svg">
<g clip-path="url(#clip0_8935_32700)">
<path opacity="0.3" d="M19.001 17.47C18.121 17.4 17.251 17.25 16.401 17.02L15.211 18.21C16.411 18.62 17.691 18.88 19.011 18.96V17.47H19.001ZM6.54102 5H5.04102C5.13102 6.32 5.39102 7.59 5.79102 8.8L6.99102 7.6C6.75102 6.76 6.60102 5.89 6.54102 5Z" fill="#00CCFA"/>
<path d="M20.001 21C20.551 21 21.001 20.55 21.001 20V16.51C21.001 15.96 20.551 15.51 20.001 15.51C18.761 15.51 17.551 15.31 16.431 14.94C16.331 14.9 16.221 14.89 16.121 14.89C15.861 14.89 15.611 14.99 15.411 15.18L13.211 17.38C10.381 15.93 8.06098 13.62 6.62098 10.79L8.82098 8.59C9.10098 8.31 9.18098 7.92 9.07098 7.57C8.70098 6.45 8.50098 5.25 8.50098 4C8.50098 3.45 8.05098 3 7.50098 3H4.00098C3.45098 3 3.00098 3.45 3.00098 4C3.00098 13.39 10.611 21 20.001 21ZM16.401 17.02C17.251 17.26 18.121 17.41 19.001 17.47V18.96C17.681 18.87 16.411 18.61 15.201 18.21L16.401 17.02ZM5.03098 5H6.53098C6.60098 5.89 6.75098 6.76 6.99098 7.59L5.79098 8.79C5.38098 7.59 5.12098 6.32 5.03098 5Z" fill="#00CCFA"/>
</g>
<defs>
<clipPath id="clip0_8935_32700">
<rect width="24" height="24" fill="white" transform="translate(0.000976562)"/>
</clipPath>
</defs>
</svg>
