<svg width="30" height="30" viewBox="0 0 30 30" fill="none" xmlns="http://www.w3.org/2000/svg">
<rect x="0.5" y="0.5" width="29" height="29" rx="3.5" fill="white" stroke="#FF1616"/>
<g clip-path="url(#clip0_13043_72333)">
<path d="M8.25065 22.2917C8.25065 23.4375 9.18815 24.375 10.334 24.375H18.6673C19.8132 24.375 20.7507 23.4375 20.7507 22.2917V11.875C20.7507 10.7292 19.8132 9.79167 18.6673 9.79167H10.334C9.18815 9.79167 8.25065 10.7292 8.25065 11.875V22.2917ZM20.7507 6.66667H18.1465L17.4069 5.92708C17.2194 5.73958 16.9486 5.625 16.6777 5.625H12.3236C12.0527 5.625 11.7819 5.73958 11.5944 5.92708L10.8548 6.66667H8.25065C7.67773 6.66667 7.20898 7.13542 7.20898 7.70833C7.20898 8.28125 7.67773 8.75 8.25065 8.75H20.7507C21.3236 8.75 21.7923 8.28125 21.7923 7.70833C21.7923 7.13542 21.3236 6.66667 20.7507 6.66667Z" fill="#FF1616"/>
</g>
<defs>
<clipPath id="clip0_13043_72333">
<rect width="25" height="25" fill="white" transform="translate(2 2.5)"/>
</clipPath>
</defs>
</svg>
