<svg width="52" height="52" viewBox="0 0 52 52" fill="none" xmlns="http://www.w3.org/2000/svg">
<path d="M28.5998 35.1002C28.5998 34.7554 28.7368 34.4248 28.9806 34.181C29.2244 33.9372 29.555 33.8002 29.8998 33.8002C30.2446 33.8002 30.5752 33.9372 30.819 34.181C31.0628 34.4248 31.1998 34.7554 31.1998 35.1002C31.1998 35.445 31.0628 35.7756 30.819 36.0194C30.5752 36.2632 30.2446 36.4002 29.8998 36.4002C29.555 36.4002 29.2244 36.2632 28.9806 36.0194C28.7368 35.7756 28.5998 35.445 28.5998 35.1002ZM19.4998 33.8002C19.155 33.8002 18.8244 33.9372 18.5806 34.181C18.3368 34.4248 18.1998 34.7554 18.1998 35.1002C18.1998 35.445 18.3368 35.7756 18.5806 36.0194C18.8244 36.2632 19.155 36.4002 19.4998 36.4002C19.8446 36.4002 20.1752 36.2632 20.419 36.0194C20.6628 35.7756 20.7998 35.445 20.7998 35.1002C20.7998 34.7554 20.6628 34.4248 20.419 34.181C20.1752 33.9372 19.8446 33.8002 19.4998 33.8002ZM7.7998 11.7002C7.7998 9.97629 8.48462 8.32299 9.70361 7.104C10.9226 5.88501 12.5759 5.2002 14.2998 5.2002H35.0998C36.8237 5.2002 38.477 5.88501 39.696 7.104C40.915 8.32299 41.5998 9.97629 41.5998 11.7002V40.3002C41.5998 42.0241 40.915 43.6774 39.696 44.8964C38.477 46.1154 36.8237 46.8002 35.0998 46.8002H14.2998C12.5759 46.8002 10.9226 46.1154 9.70361 44.8964C8.48462 43.6774 7.7998 42.0241 7.7998 40.3002V11.7002ZM25.9998 14.3002C25.9998 13.9554 25.8628 13.6248 25.619 13.381C25.3752 13.1372 25.0446 13.0002 24.6998 13.0002C24.355 13.0002 24.0244 13.1372 23.7806 13.381C23.5368 13.6248 23.3998 13.9554 23.3998 14.3002V15.6002H19.4998C19.155 15.6002 18.8244 15.7372 18.5806 15.981C18.3368 16.2248 18.1998 16.5554 18.1998 16.9002C18.1998 17.245 18.3368 17.5756 18.5806 17.8194C18.8244 18.0632 19.155 18.2002 19.4998 18.2002H23.3998V20.8002H16.8998C16.555 20.8002 16.2244 20.9372 15.9806 21.181C15.7368 21.4248 15.5998 21.7554 15.5998 22.1002C15.5998 22.445 15.7368 22.7756 15.9806 23.0194C16.2244 23.2632 16.555 23.4002 16.8998 23.4002H23.3998V26.0002H16.8998C16.555 26.0002 16.2244 26.1372 15.9806 26.381C15.7368 26.6248 15.5998 26.9554 15.5998 27.3002C15.5998 27.645 15.7368 27.9756 15.9806 28.2194C16.2244 28.4632 16.555 28.6002 16.8998 28.6002H23.3998V31.2002H19.4998C18.672 31.2006 17.8658 31.4644 17.1979 31.9535C16.53 32.4425 16.035 33.1313 15.7846 33.9203C15.5342 34.7093 15.5413 35.5575 15.8049 36.3422C16.0685 37.1269 16.575 37.8074 17.251 38.2851C17.927 38.7629 18.7375 39.0131 19.5652 38.9997C20.3929 38.9862 21.1948 38.7098 21.855 38.2103C22.5151 37.7109 22.9992 37.0143 23.2372 36.2215C23.4752 35.4286 23.4547 34.5806 23.1788 33.8002H26.2208C25.9449 34.5806 25.9244 35.4286 26.1624 36.2215C26.4004 37.0143 26.8845 37.7109 27.5447 38.2103C28.2048 38.7098 29.0067 38.9862 29.8344 38.9997C30.6621 39.0131 31.4726 38.7629 32.1486 38.2851C32.8246 37.8074 33.3311 37.1269 33.5947 36.3422C33.8583 35.5575 33.8654 34.7093 33.615 33.9203C33.3646 33.1313 32.8696 32.4425 32.2017 31.9535C31.5338 31.4644 30.7276 31.2006 29.8998 31.2002H25.9998V28.6002H32.4998C32.8446 28.6002 33.1752 28.4632 33.419 28.2194C33.6628 27.9756 33.7998 27.645 33.7998 27.3002C33.7998 26.9554 33.6628 26.6248 33.419 26.381C33.1752 26.1372 32.8446 26.0002 32.4998 26.0002H25.9998V23.4002H32.4998C32.8446 23.4002 33.1752 23.2632 33.419 23.0194C33.6628 22.7756 33.7998 22.445 33.7998 22.1002C33.7998 21.7554 33.6628 21.4248 33.419 21.181C33.1752 20.9372 32.8446 20.8002 32.4998 20.8002H25.9998V18.2002H29.8998C30.2446 18.2002 30.5752 18.0632 30.819 17.8194C31.0628 17.5756 31.1998 17.245 31.1998 16.9002C31.1998 16.5554 31.0628 16.2248 30.819 15.981C30.5752 15.7372 30.2446 15.6002 29.8998 15.6002H25.9998V14.3002Z" fill="#00CCFA"/>
</svg>
