<svg width="24" height="24" viewBox="0 0 24 24" fill="none" xmlns="http://www.w3.org/2000/svg">
<path d="M20 22V19C20 16.172 20 14.757 19.121 13.879C18.243 13 16.828 13 14 13L12 15L10 13C7.172 13 5.757 13 4.879 13.879C4 14.757 4 16.172 4 19V22M16 13V18.5" stroke="#00CCFA" stroke-width="1.5" stroke-linecap="round" stroke-linejoin="round"/>
<path d="M8.5 13V17M8.5 17C9.03043 17 9.53914 17.2107 9.91421 17.5858C10.2893 17.9609 10.5 18.4696 10.5 19V20M8.5 17C7.96957 17 7.46086 17.2107 7.08579 17.5858C6.71071 17.9609 6.5 18.4696 6.5 19V20M15.5 6.5V5.5C15.5 5.04037 15.4095 4.58525 15.2336 4.16061C15.0577 3.73597 14.7999 3.35013 14.4749 3.02513C14.1499 2.70012 13.764 2.44231 13.3394 2.26642C12.9148 2.09053 12.4596 2 12 2C11.5404 2 11.0852 2.09053 10.6606 2.26642C10.236 2.44231 9.85013 2.70012 9.52513 3.02513C9.20012 3.35013 8.94231 3.73597 8.76642 4.16061C8.59053 4.58525 8.5 5.04037 8.5 5.5V6.5C8.5 6.95963 8.59053 7.41475 8.76642 7.83939C8.94231 8.26403 9.20012 8.64987 9.52513 8.97487C9.85013 9.29988 10.236 9.55769 10.6606 9.73358C11.0852 9.90947 11.5404 10 12 10C12.4596 10 12.9148 9.90947 13.3394 9.73358C13.764 9.55769 14.1499 9.29988 14.4749 8.97487C14.7999 8.64987 15.0577 8.26403 15.2336 7.83939C15.4095 7.41475 15.5 6.95963 15.5 6.5ZM16.75 19.25C16.75 19.4489 16.671 19.6397 16.5303 19.7803C16.3897 19.921 16.1989 20 16 20C15.8011 20 15.6103 19.921 15.4697 19.7803C15.329 19.6397 15.25 19.4489 15.25 19.25C15.25 19.0511 15.329 18.8603 15.4697 18.7197C15.6103 18.579 15.8011 18.5 16 18.5C16.1989 18.5 16.3897 18.579 16.5303 18.7197C16.671 18.8603 16.75 19.0511 16.75 19.25Z" stroke="#00CCFA" stroke-width="1.5" stroke-linecap="round" stroke-linejoin="round"/>
</svg>
