<svg width="24" height="24" viewBox="0 0 24 24" fill="none" xmlns="http://www.w3.org/2000/svg">
<path d="M9.13628 2.5C6.47 2.56075 4.91266 2.81456 3.8486 3.87492C2.91732 4.80297 2.60602 6.10756 2.50195 8.2M14.8676 2.5C17.5339 2.56075 19.0913 2.81456 20.1553 3.87492C21.0866 4.80297 21.3979 6.10756 21.502 8.2M14.8676 21.5C17.5339 21.4393 19.0913 21.1854 20.1553 20.1251C21.0866 19.197 21.3979 17.8924 21.502 15.8M9.13628 21.5C6.47 21.4393 4.91266 21.1854 3.8486 20.1251C2.91732 19.197 2.60602 17.8924 2.50195 15.8" stroke="#00CCFA" stroke-width="1.5" stroke-linecap="round" stroke-linejoin="round"/>
<path d="M8.00098 17C9.83944 14.4046 14.1198 14.263 16.001 17M14.501 9.5C14.501 10.8807 13.3817 12 12.001 12C10.6203 12 9.50098 10.8807 9.50098 9.5C9.50098 8.11929 10.6203 7 12.001 7C13.3817 7 14.501 8.11929 14.501 9.5Z" stroke="#00CCFA" stroke-width="1.5" stroke-linecap="round"/>
</svg>
