<svg width="24" height="24" viewBox="0 0 24 24" fill="none" xmlns="http://www.w3.org/2000/svg">
<path d="M14.001 3.5H10.001C6.22974 3.5 4.34413 3.5 3.17255 4.67157C2.00098 5.84315 2.00098 7.72876 2.00098 11.5V12.5C2.00098 16.2712 2.00098 18.1569 3.17255 19.3284C4.34413 20.5 6.22974 20.5 10.001 20.5H14.001C17.7722 20.5 19.6579 20.5 20.8294 19.3284C22.001 18.1569 22.001 16.2712 22.001 12.5V11.5C22.001 7.72876 22.001 5.84315 20.8294 4.67157C19.6579 3.5 17.7722 3.5 14.001 3.5Z" stroke="#00CCFA" stroke-width="1.5" stroke-linejoin="round"/>
<path d="M5.00098 16C6.03667 13.4189 9.89714 13.2491 11.001 16" stroke="#00CCFA" stroke-width="1.5" stroke-linecap="round"/>
<path d="M9.75098 9.75C9.75098 10.7165 8.96748 11.5 8.00098 11.5C7.03448 11.5 6.25098 10.7165 6.25098 9.75C6.25098 8.7835 7.03448 8 8.00098 8C8.96748 8 9.75098 8.7835 9.75098 9.75Z" stroke="#00CCFA" stroke-width="1.5"/>
<path d="M14.001 8.5H19.001M14.001 12H19.001M14.001 15.5H16.501" stroke="#00CCFA" stroke-width="1.5" stroke-linecap="round" stroke-linejoin="round"/>
</svg>
