<svg width="24" height="24" viewBox="0 0 24 24" fill="none" xmlns="http://www.w3.org/2000/svg">
<path d="M20 6C20.5523 6 21 5.55228 21 5C21 4.44772 20.5523 4 20 4C19.4477 4 19 4.44772 19 5C19 5.55228 19.4477 6 20 6Z" fill="#00CCFA"/>
<path d="M21.5 4C21.7761 4 22 3.77614 22 3.5C22 3.22386 21.7761 3 21.5 3C21.2239 3 21 3.22386 21 3.5C21 3.77614 21.2239 4 21.5 4Z" fill="#00CCFA"/>
<path d="M20.5 2C20.7761 2 21 1.77614 21 1.5C21 1.22386 20.7761 1 20.5 1C20.2239 1 20 1.22386 20 1.5C20 1.77614 20.2239 2 20.5 2Z" fill="#00CCFA"/>
<path d="M16 7V8H17L17.003 18.031C17 19.712 18 21 19.5 21C21 21 22 19.793 22 18V8H23V7H16ZM21 15L20.435 15.424C20.1285 15.6414 19.7607 15.7555 19.385 15.75H19V15H18V13H19V12H18V10H19V9H18V8H21V15ZM8 10C8.39556 10 8.78224 10.1173 9.11114 10.3371C9.44004 10.5568 9.69638 10.8692 9.84776 11.2346C9.99913 11.6001 10.0387 12.0022 9.96157 12.3902C9.8844 12.7781 9.69392 13.1345 9.41421 13.4142C9.13451 13.6939 8.77814 13.8844 8.39018 13.9616C8.00222 14.0387 7.60009 13.9991 7.23463 13.8478C6.86918 13.6964 6.55682 13.44 6.33706 13.1111C6.1173 12.7822 6 12.3956 6 12C6.00158 11.4701 6.2128 10.9623 6.58753 10.5875C6.96227 10.2128 7.47005 10.0016 8 10ZM8 20C10.7 20 13.8 21.29 14 22H2C2.23 21.28 5.31 20 8 20ZM8 8C7.20887 8 6.43552 8.2346 5.77772 8.67412C5.11992 9.11365 4.60723 9.73836 4.30448 10.4693C4.00173 11.2002 3.92252 12.0044 4.07686 12.7804C4.2312 13.5563 4.61216 14.269 5.17157 14.8284C5.73098 15.3878 6.44371 15.7688 7.21964 15.9231C7.99556 16.0775 8.79983 15.9983 9.53073 15.6955C10.2616 15.3928 10.8864 14.8801 11.3259 14.2223C11.7654 13.5645 12 12.7911 12 12C12 10.9391 11.5786 9.92172 10.8284 9.17157C10.0783 8.42143 9.06087 8 8 8ZM8 18C5.33 18 0 19.34 0 22V24H16V22C16 19.34 10.67 18 8 18Z" fill="#00CCFA"/>
</svg>
