<svg width="32" height="32" viewBox="0 0 32 32" fill="none" xmlns="http://www.w3.org/2000/svg">
<rect width="32" height="32" rx="16" fill="#D9F7FE"/>
<g clip-path="url(#clip0_6790_1611)">
<path d="M15.9998 24.333C16.9165 24.333 17.6665 23.583 17.6665 22.6663H14.3331C14.3331 23.583 15.0748 24.333 15.9998 24.333ZM20.9998 19.333V15.1663C20.9998 12.608 19.6331 10.4663 17.2498 9.89967V9.33301C17.2498 8.64134 16.6915 8.08301 15.9998 8.08301C15.3081 8.08301 14.7498 8.64134 14.7498 9.33301V9.89967C12.3581 10.4663 10.9998 12.5997 10.9998 15.1663V19.333L9.9248 20.408C9.3998 20.933 9.76647 21.833 10.5081 21.833H21.4831C22.2248 21.833 22.5998 20.933 22.0748 20.408L20.9998 19.333Z" fill="#00CCFA"/>
</g>
<defs>
<clipPath id="clip0_6790_1611">
<rect width="20" height="20" fill="white" transform="translate(6 6)"/>
</clipPath>
</defs>
</svg>
