<svg width="24" height="24" viewBox="0 0 24 24" fill="none" xmlns="http://www.w3.org/2000/svg">
<path d="M7.617 3L7.5 3.60975L6.75 7.8285V10.5H6.8205C6.92428 11.225 7.17794 11.9203 7.56533 12.5418C7.95272 13.1633 8.46533 13.6973 9.0705 14.1097C6.39525 15.2572 4.5 17.9122 4.5 21H6C5.9989 20.0998 6.2006 19.211 6.59012 18.3995C6.97964 17.588 7.54698 16.8747 8.25 16.3125V16.8045L8.46075 17.0392L11.4608 20.0392L12 20.5545L12.5392 20.0392L15.5392 17.0392L15.75 16.8045V16.3125C16.453 16.8747 17.0204 17.588 17.4099 18.3995C17.7994 19.211 18.0011 20.0998 18 21H19.5C19.5 17.9122 17.6047 15.258 14.9295 14.109C15.5346 13.6967 16.0471 13.1628 16.4345 12.5414C16.8219 11.9201 17.0756 11.2248 17.1795 10.5H17.25V7.82775L16.5 3.60975L16.383 3H7.617ZM8.883 4.5H15.117L15.75 8.08575V9H8.25V8.08575L8.883 4.5ZM11.25 5.25V6H10.5V7.5H11.25V8.25H12.75V7.5H13.5V6H12.75V5.25H11.25ZM8.3205 10.5H15.6795C15.5064 11.3478 15.0455 12.1096 14.3749 12.6564C13.7043 13.2032 12.8653 13.5012 12 13.5C11.1347 13.5012 10.2957 13.2032 9.62507 12.6564C8.95445 12.1096 8.49355 11.3478 8.3205 10.5ZM12 15C12.7701 14.995 13.5341 15.1384 14.25 15.4222V16.1722L12 18.4222L9.75 16.1722V15.4222C10.4659 15.1384 11.2299 14.995 12 15Z" fill="#00CCFA"/>
</svg>
