<svg width="24" height="24" viewBox="0 0 24 24" fill="none" xmlns="http://www.w3.org/2000/svg">
<g clip-path="url(#clip0_8940_32849)">
<path d="M12.001 12C14.211 12 16.001 10.21 16.001 8C16.001 5.79 14.211 4 12.001 4C9.79098 4 8.00098 5.79 8.00098 8C8.00098 10.21 9.79098 12 12.001 12ZM12.001 6C13.101 6 14.001 6.9 14.001 8C14.001 9.1 13.101 10 12.001 10C10.901 10 10.001 9.1 10.001 8C10.001 6.9 10.901 6 12.001 6ZM12.001 13C9.33098 13 4.00098 14.34 4.00098 17V19C4.00098 19.55 4.45098 20 5.00098 20H19.001C19.551 20 20.001 19.55 20.001 19V17C20.001 14.34 14.671 13 12.001 13ZM18.001 18H6.00098V17.01C6.20098 16.29 9.30098 15 12.001 15C14.701 15 17.801 16.29 18.001 17V18Z" fill="#00CCFA"/>
</g>
<defs>
<clipPath id="clip0_8940_32849">
<rect width="24" height="24" fill="white" transform="translate(0.000976562)"/>
</clipPath>
</defs>
</svg>
