<svg width="52" height="52" viewBox="0 0 52 52" fill="none" xmlns="http://www.w3.org/2000/svg">
<path d="M22.0795 2.78613C19.2459 2.83387 16.6865 4.52387 15.5287 7.13707L29.392 11.3245C30.0014 7.68957 27.8178 4.16535 24.3037 3.0959C23.674 2.90496 23.0139 2.80035 22.3537 2.78613H22.0795ZM15.0006 8.88801C14.3811 12.5331 16.5647 16.0675 20.0889 17.1339C23.6232 18.2003 27.3912 16.4534 28.874 13.0714L15.0006 8.88801ZM41.9654 13.3862C39.3959 13.3964 36.6639 14.6354 34.6021 17.5503L21.9272 35.5167C18.5248 40.3307 20.0076 45.3682 23.3592 47.7448C26.7209 50.1315 31.9514 49.8573 35.3537 45.0432L48.0186 27.087C51.4209 22.2628 49.9381 17.2354 46.5865 14.8487C45.3272 13.955 43.8139 13.437 42.2193 13.3862H41.9654ZM41.7826 15.1432C41.9146 15.1432 42.0467 15.1432 42.1686 15.1534C43.3975 15.2042 44.5553 15.6409 45.5303 16.3417C48.1404 18.1901 49.4506 21.8768 46.5154 26.0307L39.9646 35.3237C36.3287 34.3487 31.6568 31.0276 29.5342 27.9096L36.1053 18.6065C37.8217 16.1792 39.8631 15.1839 41.7826 15.1432ZM9.26739 22.8823C8.29036 22.8925 7.32653 23.0956 6.43075 23.4917C3.06801 24.9643 1.31809 28.7222 2.34387 32.2565L15.6201 26.4573C14.2897 24.2128 11.8725 22.8518 9.26739 22.8823ZM16.3412 28.1229L3.067 33.9323C4.94082 37.1214 8.88653 38.4011 12.2686 36.9284C15.6404 35.4456 17.3873 31.6675 16.3412 28.1229Z" fill="#00CCFA"/>
</svg>
