<svg width="24" height="24" viewBox="0 0 24 24" fill="none" xmlns="http://www.w3.org/2000/svg">
<path d="M18.0712 8.50989L9.51124 4.22989C3.76124 1.34989 1.40124 3.70989 4.28124 9.45989L5.15124 11.1999C5.40124 11.7099 5.40124 12.2999 5.15124 12.8099L4.28124 14.5399C1.40124 20.2899 3.75124 22.6499 9.51124 19.7699L18.0712 15.4899C21.9112 13.5699 21.9112 10.4299 18.0712 8.50989ZM14.8412 12.7499H9.44124C9.03124 12.7499 8.69124 12.4099 8.69124 11.9999C8.69124 11.5899 9.03124 11.2499 9.44124 11.2499H14.8412C15.2512 11.2499 15.5912 11.5899 15.5912 11.9999C15.5912 12.4099 15.2512 12.7499 14.8412 12.7499Z" fill="#00CCFA"/>
</svg>
