<svg width="52" height="52" viewBox="0 0 52 52" fill="none" xmlns="http://www.w3.org/2000/svg">
<path fill-rule="evenodd" clip-rule="evenodd" d="M36.6535 14.9604C36.6535 18.7098 35.7218 23.5999 34.2886 22.8579C33.7025 24.7718 32.4721 26.4239 30.8062 27.5336C29.1403 28.6434 27.1417 29.1424 25.1498 28.9459C23.1578 28.7494 21.2952 27.8695 19.8783 26.4556C18.4614 25.0418 17.5775 23.1811 17.3767 21.1895C15.9542 18.7011 14.0887 13.7145 18.8847 9.82753C18.9713 9.79936 19.0233 9.56536 19.1013 9.22086C19.3982 7.91761 20.0557 5.02078 24.2038 5.57436C27.4029 6.00011 36.6535 7.65111 36.6535 14.9604ZM32.5303 17.3253C32.5303 17.3253 32.0407 18.7574 32.5 20.3532C32.494 22.0547 31.8211 23.6859 30.6258 24.8968C29.4305 26.1077 27.808 26.8016 26.1068 26.8295C24.4055 26.8575 22.7611 26.2172 21.5267 25.0462C20.2922 23.8753 19.5662 22.267 19.5043 20.5666C19.6614 19.9708 19.6614 18.9622 19.6603 17.8409C19.6592 15.8184 19.6571 13.4318 20.5833 12.4589C27.0714 16.7804 32.5303 17.3253 32.5303 17.3253Z" fill="#00CCFA"/>
<path d="M14.0833 38.9994C14.0833 37.8272 14.7041 36.8002 15.6357 36.2282C15.6004 36.0933 15.5671 35.9579 15.5361 35.822C15.3723 35.0817 15.244 34.3341 15.1515 33.5816C15.0591 32.8605 15.0031 32.1352 14.9836 31.4084C10.4108 33.2035 6.5 36.3322 6.5 39.6169V45.4994H45.5V39.6169C45.5 36.4709 41.9142 33.4689 37.5938 31.6435V31.6739C37.6133 32.3347 37.5765 33.093 37.505 33.8221C37.44 34.4981 37.3436 35.1719 37.2277 35.7494H37.9167C38.1178 35.7495 38.3149 35.8056 38.486 35.9114C38.657 36.0172 38.7953 36.1685 38.8852 36.3485L39.9685 38.5151C40.0443 38.6657 40.0833 38.8314 40.0833 38.9994V41.166C40.0833 41.4534 39.9692 41.7289 39.766 41.9321C39.5629 42.1352 39.2873 42.2494 39 42.2494H36.8333V40.0827H37.9167V39.255L37.2472 37.916H34.2528L33.5833 39.255V40.0827H34.6667V42.2494H32.5C32.2127 42.2494 31.9371 42.1352 31.734 41.9321C31.5308 41.7289 31.4167 41.4534 31.4167 41.166V38.9994C31.4167 38.8314 31.4557 38.6657 31.5315 38.5151L32.6148 36.3485C32.7047 36.1685 32.843 36.0172 33.014 35.9114C33.1851 35.8056 33.3822 35.7495 33.5833 35.7494H35.0079C35.0317 35.6562 35.0556 35.5529 35.0794 35.4395C35.1878 34.9293 35.2842 34.2825 35.3492 33.6141C35.4142 32.9446 35.4445 32.2805 35.4282 31.7345C35.4247 31.5083 35.407 31.2825 35.3752 31.0585C35.3513 30.9047 35.3275 30.8343 35.3232 30.8191C35.3217 30.8155 35.3217 30.8148 35.3232 30.817L35.3264 30.8159C34.7515 30.6375 34.1701 30.4811 33.5833 30.3468C33.0384 30.2222 32.4751 30.9719 32.2292 31.441H19.5L19.4068 31.2589C19.1772 30.8018 18.8944 30.2374 18.4167 30.3468C17.9992 30.4414 17.5821 30.5486 17.1654 30.6685C17.1525 30.8586 17.1467 31.049 17.1481 31.2394C17.1524 31.8385 17.2098 32.5719 17.3019 33.3129C17.394 34.0518 17.5186 34.7711 17.6486 35.3388C17.6861 35.5027 17.7223 35.6486 17.7569 35.7765C18.3763 35.8579 18.959 36.1161 19.4355 36.5201C19.9119 36.9242 20.2618 37.4569 20.4432 38.0547C20.6247 38.6524 20.63 39.2898 20.4586 39.8905C20.2872 40.4912 19.9463 41.0298 19.4767 41.4418C19.0071 41.8538 18.4287 42.1217 17.8108 42.2135C17.1929 42.3052 16.5617 42.217 15.9926 41.9593C15.4236 41.7016 14.9408 41.2854 14.6022 40.7604C14.2636 40.2355 14.0835 39.6241 14.0833 38.9994Z" fill="#00CCFA"/>
<path d="M18.4167 39C18.4167 39.6218 17.9162 40.0996 17.3333 40.0996C16.7505 40.0996 16.25 39.6229 16.25 39C16.25 38.3781 16.7505 37.9004 17.3333 37.9004C17.9162 37.9004 18.4167 38.3771 18.4167 39Z" fill="#00CCFA"/>
</svg>
