<svg width="40" height="40" viewBox="0 0 40 40" fill="none" xmlns="http://www.w3.org/2000/svg">
<path fill-rule="evenodd" clip-rule="evenodd" d="M13.3856 6.91995C13.3856 5.16573 14.0825 3.48336 15.3229 2.24294C16.5633 1.00252 18.2457 0.305664 19.9999 0.305664C21.7541 0.305664 23.4365 1.00252 24.6769 2.24294C25.9173 3.48336 26.6142 5.16573 26.6142 6.91995C26.6142 8.67417 25.9173 10.3565 24.6769 11.597C23.4365 12.8374 21.7541 13.5342 19.9999 13.5342C18.2457 13.5342 16.5633 12.8374 15.3229 11.597C14.0825 10.3565 13.3856 8.67417 13.3856 6.91995ZM6.98849 17.7542C8.33491 16.4761 10.1206 15.7635 11.9771 15.7635C13.8336 15.7635 15.6192 16.4761 16.9656 17.7542L16.9942 17.7828L19.9999 20.7885L23.0085 17.7828L23.0371 17.7542C24.3832 16.4777 26.1677 15.7662 28.0228 15.7662C29.8779 15.7662 31.6624 16.4777 33.0085 17.7542C33.6771 18.3884 34.2098 19.1519 34.574 19.9984C34.9383 20.8449 35.1266 21.7566 35.1274 22.6781C35.1282 23.5996 34.9415 24.5117 34.5787 25.3588C34.2159 26.2059 33.6846 26.9704 33.0171 27.6057L20.9942 39.2914C20.7276 39.5506 20.3704 39.6956 19.9985 39.6956C19.6266 39.6956 19.2694 39.5506 19.0028 39.2914L6.98278 27.6057C6.31551 26.9706 5.78435 26.2065 5.42158 25.3597C5.05882 24.513 4.87203 23.6013 4.87256 22.6802C4.87309 21.759 5.06094 20.8475 5.42469 20.0012C5.78844 19.1549 6.32049 18.3885 6.98849 17.7542Z" fill="#E2E1E1"/>
</svg>
